<svg xmlns="http://www.w3.org/2000/svg" width="128" height="128" viewBox="0 0 128 128" fill="none">
  <defs>
    <linearGradient id="m" x1="24" y1="22" x2="108" y2="118" gradientUnits="userSpaceOnUse">
      <stop stop-color="#FF3864"/>
      <stop offset="1" stop-color="#FF6B9A"/>
    </linearGradient>
    <filter id="s" x="-20%" y="-20%" width="140%" height="140%">
      <feDropShadow dx="0" dy="10" stdDeviation="10" flood-color="#000" flood-opacity="0.35"/>
    </filter>
  </defs>
  <g filter="url(#s)">
    <path d="M26 58c0-21 17-38 38-38h0c21 0 38 17 38 38v10c0 20-16 36-36 36H62c-20 0-36-16-36-36V58z" fill="rgba(0,0,0,0.35)" stroke="rgba(255,255,255,0.14)" stroke-width="3"/>
    <path d="M36 48c10-10 46-10 56 0" stroke="rgba(255,255,255,0.12)" stroke-width="10" stroke-linecap="round"/>
    <path d="M44 72c0-6 5-11 11-11h18c6 0 11 5 11 11v10c0 6-5 11-11 11H55c-6 0-11-5-11-11V72z" fill="url(#m)" stroke="rgba(255,255,255,0.18)" stroke-width="3"/>
    <circle cx="54" cy="78" r="5" fill="rgba(0,0,0,0.45)"/>
    <circle cx="74" cy="78" r="5" fill="rgba(0,0,0,0.45)"/>
    <path d="M52 96c8 6 16 6 24 0" stroke="rgba(0,0,0,0.45)" stroke-width="6" stroke-linecap="round"/>
    <path d="M40 52c-4-10 6-22 24-24" stroke="rgba(255,255,255,0.10)" stroke-width="6" stroke-linecap="round"/>
  </g>
</svg>

